<svg xmlns="http://www.w3.org/2000/svg" viewBox="0 0 900 1200"><svg viewBox="0 0 900 600" height="600" width="900" y="0"><g transform="matrix(1 0 0 1 0 0)"><rect x="0" y="0" width="900" height="600" fill="#002233"/><path d="M0 459L21.5 447.3C43 435.7 86 412.3 128.8 416.5C171.7 420.7 214.3 452.3 257.2 461.5C300 470.7 343 457.3 385.8 462.7C428.7 468 471.3 492 514.2 481.8C557 471.7 600 427.3 642.8 408C685.7 388.7 728.3 394.3 771.2 398.2C814 402 857 404 878.5 405L900 406L900 601L878.5 601C857 601 814 601 771.2 601C728.3 601 685.7 601 642.8 601C600 601 557 601 514.2 601C471.3 601 428.7 601 385.8 601C343 601 300 601 257.2 601C214.3 601 171.7 601 128.8 601C86 601 43 601 21.5 601L0 601Z" fill="#0066FF" stroke-linecap="round" stroke-linejoin="miter"/></g></svg><svg viewBox="0 0 900 600" height="600" width="900" y="600"><g transform="matrix(1 0 0 1 0 0)"><rect x="0" y="0" width="900" height="600" fill="#002233"/><path d="M0 219L21.5 201.2C43 183.3 86 147.7 128.8 145C171.7 142.3 214.3 172.7 257.2 190C300 207.3 343 211.7 385.8 197.8C428.7 184 471.3 152 514.2 142C557 132 600 144 642.8 146.2C685.7 148.3 728.3 140.7 771.2 137C814 133.3 857 133.7 878.5 133.8L900 134L900 0L878.5 0C857 0 814 0 771.2 0C728.3 0 685.7 0 642.8 0C600 0 557 0 514.2 0C471.3 0 428.7 0 385.8 0C343 0 300 0 257.2 0C214.3 0 171.7 0 128.8 0C86 0 43 0 21.5 0L0 0Z" fill="#0066FF" stroke-linecap="round" stroke-linejoin="miter"/></g></svg></svg>